<svg xmlns="http://www.w3.org/2000/svg" version="1.1" xmlns:xlink="http://www.w3.org/1999/xlink" xmlns:svgjs="http://svgjs.dev/svgjs" viewBox="0 0 1000.227972721940077 15.929851841813125"><g transform="matrix(1,0,0,1,6.438280033249196,2.0241159932982216)"><rect width="17.227972721940077" height="45.227972721940077" x="-15.438280033249197" y="-7.173176433361697" fill="#3f170e"></rect><g><path d=" M 1.9474746975172483 0.1643972147254822 C 1.6548115240499066 0.1643972147254822 1.4307977369514477 0.5473885281518797 1.195944573057902 0.9357995299758206 C 0.8183729480290477 0.9303798415782774 0.643136356508479 0.776822003647882 0.643136356508479 0.5907460353322266 C 0.643136356508479 0.431768509004288 0.8039204456355988 0.3269878666517829 0.9285732787790961 0.3269878666517829 C 1.01528829313979 0.3269878666517829 1.0676786143160424 0.35408630863949975 1.0730983027135859 0.35408630863949975 C 1.0803245539103103 0.35408630863949975 1.0857442423078536 0.34686005744277526 1.0857442423078536 0.3396338062460508 C 1.0857442423078536 0.33060099225014516 1.0279342327340577 0.298082861864885 0.9231535903815528 0.298082861864885 C 0.7822416920454254 0.298082861864885 0.5907460353322265 0.39744381581984667 0.5907460353322265 0.5997788493281322 C 0.5907460353322265 0.7985007572380555 0.7948876316396932 0.9755439115578053 1.1688461310701852 0.9791570371561675 C 1.0821311167094914 1.1236820610906573 0.9918029767504354 1.2664005222259658 0.8960551483938359 1.389246792570282 C 0.7244316824716295 1.3061449038079505 0.5491950909510608 1.2374955174390678 0.3866044390247599 1.2374955174390678 C 0.20594815910664777 1.2374955174390678 0.023485316389354572 1.3495024109882974 0.023485316389354572 1.5301586909064095 C 0.023485316389354572 1.701782156828616 0.16078408912711975 1.7975299851852153 0.328794429450964 1.7975299851852153 C 0.5582279049469664 1.7975299851852153 0.7461104360618029 1.6511983984515446 0.9141207763856471 1.448863364943259 C 1.1724592566685474 1.5753227608859375 1.4289911741522665 1.730687161615514 1.6313262076605521 1.730687161615514 C 1.7794643571934041 1.730687161615514 1.8770187483491845 1.59519495167693 1.8770187483491845 1.5861621376810242 C 1.8770187483491845 1.580742449283481 1.86979249715246 1.5735161980867565 1.8643728087549167 1.5735161980867565 C 1.8499203063614678 1.5735161980867565 1.7704315431974984 1.6819099660376235 1.6385524588572766 1.6819099660376235 C 1.4398305509473532 1.6819099660376235 1.194138010258721 1.5355783793039528 0.9430257811725451 1.4109255461604555 C 1.045999860725869 1.2808530246194147 1.1417476890824685 1.1291017494882007 1.2338823918407056 0.9773504743569865 C 1.7397199756114194 0.9574782835659941 2.1751016102140697 0.6377166681109357 2.1751016102140697 0.3595059970370431 C 2.1751016102140697 0.23846628949190807 2.091999721451738 0.1643972147254822 1.9474746975172483 0.1643972147254822 M 1.9673468883082406 0.20594815910664788 C 2.0540619026689346 0.20594815910664788 2.1281309774353603 0.26195160588126254 2.1281309774353603 0.34686005744277526 C 2.1281309774353603 0.6178444773199434 1.7072018452261593 0.9159273391848284 1.2591742710292413 0.9339929671766396 C 1.4868011837260624 0.5600344677461475 1.6981690312302535 0.20594815910664788 1.9673468883082406 0.20594815910664788 M 0.33240755504932623 1.7523659152056874 C 0.20414159630746664 1.7523659152056874 0.07045594916806372 1.6638443380458123 0.07045594916806372 1.5301586909064095 C 0.07045594916806372 1.3820205413735576 0.2330466010943646 1.2808530246194147 0.37576506222967315 1.2808530246194147 C 0.5293229001600684 1.2808530246194147 0.6973332404839127 1.3458892853899351 0.8653435808077569 1.4253780485539045 C 0.7099791800781805 1.6168737052671034 0.538355714155974 1.7523659152056874 0.33240755504932623 1.7523659152056874 M 2.314220177412143 1.1598133170742797 C 2.314220177412143 1.1598133170742797 2.323252991408048 1.148973940279193 2.323252991408048 1.1417476890824685 C 2.323252991408048 1.1327148750865628 2.3160267402113237 1.1254886238898383 2.305187363416237 1.1254886238898383 C 2.2979611122195127 1.1254886238898383 2.288928298223607 1.1363280006849252 2.288928298223607 1.1363280006849252 C 2.288928298223607 1.1363280006849252 2.122724520698944 1.3187908434022184 2.0143307527480765 1.3187908434022184 C 1.9727798083669108 1.3187908434022184 1.945681366379194 1.2934989642136827 1.945681366379194 1.2519480198325168 C 1.945681366379194 1.1471673774800117 2.0829801391169593 0.9773504743569865 2.1263376462973063 0.924960153180734 C 2.1335638974940307 0.9159273391848284 2.1353704602932115 0.9087010879881039 2.1353704602932115 0.9050879623897417 C 2.1353704602932115 0.8942485855946549 2.1263376462973063 0.8852157715987493 2.1136917067030385 0.8852157715987493 C 2.0847867019161406 0.8852157715987493 1.896904170801304 1.1291017494882007 1.896904170801304 1.2519480198325168 C 1.896904170801304 1.3169842806030372 1.9402616779816506 1.3567286621850219 2.0016848131538088 1.3567286621850219 C 2.1407901486907552 1.3567286621850219 2.314220177412143 1.1598133170742797 2.314220177412143 1.1598133170742797 M 2.2762823586293393 0.6359101053117546 C 2.2509904794408033 0.6359101053117546 2.2220854746539054 0.6756544868937393 2.2220854746539054 0.7063660544798184 C 2.2220854746539054 0.7244316824716296 2.2347314142481736 0.7334644964675352 2.2509904794408033 0.7334644964675352 C 2.2798954842277013 0.7334644964675352 2.305187363416237 0.686493863688826 2.305187363416237 0.6612019845002903 C 2.305187363416237 0.6449429193076602 2.2925414238219695 0.6359101053117546 2.2762823586293393 0.6359101053117546 M 3.0494877082358918 1.1598133170742797 C 3.0494877082358918 1.1598133170742797 3.058520522231797 1.148973940279193 3.058520522231797 1.1417476890824685 C 3.058520522231797 1.1327148750865628 3.051294271035073 1.1254886238898383 3.040454894239986 1.1254886238898383 C 3.0332286430432616 1.1254886238898383 3.024195829047356 1.1363280006849252 3.024195829047356 1.1363280006849252 C 3.024195829047356 1.1363280006849252 2.879670805112866 1.3079514666071317 2.753211409170188 1.3079514666071317 C 2.7206932787849274 1.3079514666071317 2.695401399596392 1.2880792758161392 2.695401399596392 1.255561145430879 C 2.695401399596392 1.1742658194677287 2.8706379911169604 1.0550326747217746 2.8706379911169604 0.9592848463651753 C 2.8706379911169604 0.9159273391848284 2.8381198607317004 0.8816026460003871 2.7911492279529915 0.8816026460003871 C 2.6574635808135882 0.8816026460003871 2.4045447889282316 1.0875508051070348 2.2672460161904664 1.2465283314349735 C 2.3304757141618055 1.1363280006849252 2.4171907285224994 1.0225145443365145 2.4822269892930198 0.9484454695700886 C 2.4948729288872875 0.9339929671766396 2.5002926172848308 0.9285732787790962 2.5002926172848308 0.9213470275823717 C 2.5002926172848308 0.9123142135864661 2.485840114891382 0.8996682739921983 2.4750007380962953 0.8996682739921983 C 2.4479022961085786 0.8996682739921983 2.3051838349732696 1.0965836191029403 2.236534448604387 1.2140102010497134 C 2.1985966298215835 1.2790464618202337 2.17691787623141 1.3224039690005807 2.17691787623141 1.3368564713940296 C 2.17691787623141 1.3531155365866596 2.1895638158256783 1.3639549133817463 2.202209755419946 1.3639549133817463 C 2.2130491322150325 1.3639549133817463 2.220275383411757 1.3585352249842029 2.232921323006025 1.3422761597915729 C 2.4226104169200426 1.120068935492295 2.6646898320103127 0.924960153180734 2.7803098511579045 0.924960153180734 C 2.801988604748078 0.924960153180734 2.818247669940708 0.9394126555741829 2.818247669940708 0.9592848463651753 C 2.818247669940708 1.0369670467299634 2.6412045156209585 1.1562001914759175 2.6412045156209585 1.2609808338284225 C 2.6412045156209585 1.313371155004675 2.6791423344037617 1.3495024109882974 2.7369523439775576 1.3495024109882974 C 2.8850904935104094 1.3495024109882974 3.0494877082358918 1.1598133170742797 3.0494877082358918 1.1598133170742797 M 3.6962733568831463 1.1598133170742797 C 3.6962733568831463 1.1598133170742797 3.705306170879052 1.148973940279193 3.705306170879052 1.1417476890824685 C 3.705306170879052 1.1327148750865628 3.6980799196823275 1.1254886238898383 3.6872405428872406 1.1254886238898383 C 3.680014291690516 1.1254886238898383 3.6709814776946104 1.1363280006849252 3.6709814776946104 1.1363280006849252 C 3.5932992773298222 1.226656140643981 3.4794858209814117 1.298918652611226 3.3548329878379146 1.3639549133817463 C 3.3819314298256313 1.297112089812045 3.403610183415805 1.2338823918407056 3.421675811407616 1.179685507865272 C 3.4397414393994272 1.1218754982914763 3.452387378993695 1.0803245539103103 3.452387378993695 1.0676786143160424 C 3.452387378993695 1.0586458003201369 3.437934876600246 1.0496129863242314 3.4289020626043403 1.0496129863242314 C 3.4180626858092538 1.0496129863242314 3.4018036206166236 1.091163930705397 3.349413299440371 1.1471673774800117 C 3.2608917222804963 1.2429152058366113 3.1398520147353612 1.3350499085948484 3.080235442362384 1.3350499085948484 C 3.0477173119771237 1.3350499085948484 3.0260385583869502 1.313371155004675 3.0260385583869502 1.2736267734226903 C 3.0260385583869502 1.1291017494882007 3.2482457826862285 0.9159273391848284 3.4252889370059783 0.9159273391848284 C 3.4794858209814117 0.9159273391848284 3.497551448973223 0.9466389067709073 3.497551448973223 0.970124223160262 C 3.497551448973223 0.9918029767504355 3.4885186349773174 1.0044489163447032 3.4885186349773174 1.0116751675414277 C 3.4885186349773174 1.0189014187381522 3.4939383233748607 1.0243211071356957 3.501164574571585 1.0243211071356957 C 3.512003951366672 1.0243211071356957 3.5336827049568456 0.99902922794716 3.5336827049568456 0.9628979719635375 C 3.5336827049568456 0.924960153180734 3.5083908257683096 0.8761829576028437 3.4126429974117105 0.8761829576028437 C 3.224760466296874 0.8761829576028437 2.9754548000098793 1.1074229958980273 2.9754548000098793 1.270013647824328 C 2.9754548000098793 1.3404695969923917 3.022425432788588 1.3729877273776518 3.069396065567297 1.3729877273776518 C 3.166950456723078 1.3729877273776518 3.2861836014690318 1.270013647824328 3.38012486702645 1.1706526938693664 C 3.3584461134362766 1.2338823918407056 3.3295411086493787 1.313371155004675 3.2934098526657563 1.3964730437670065 C 2.957389172018068 1.5644833840908507 2.5635584817965835 1.6927493428327103 2.5635584817965835 1.9384418835213428 C 2.5635584817965835 2.035996274677123 2.634014430964647 2.104645661046006 2.738795073317152 2.104645661046006 C 2.9935204280016903 2.104645661046006 3.2048882755058816 1.7288805988163327 3.333154234247741 1.41815179735718 C 3.4740661325838684 1.344082722590754 3.604138654124909 1.2627873966276035 3.6962733568831463 1.1598133170742797 M 2.610529114575293 1.9384418835213428 C 2.610529114575293 1.7288805988163327 2.9519694836205246 1.6078408912711977 3.271731099075583 1.448863364943259 C 3.1452717031329045 1.7379134128122384 2.9519694836205246 2.064901279464021 2.736988510517971 2.064901279464021 C 2.6647259985507263 2.064901279464021 2.610529114575293 2.0143175210869497 2.610529114575293 1.9384418835213428 M 4.3845896613645055 1.1598133170742797 C 4.3845896613645055 1.1598133170742797 4.393622475360411 1.148973940279193 4.393622475360411 1.1417476890824685 C 4.393622475360411 1.1327148750865628 4.386396224163686 1.1254886238898383 4.377363410167781 1.1254886238898383 C 4.368330596171876 1.1254886238898383 4.35929778217597 1.1363280006849252 4.35929778217597 1.1363280006849252 C 4.35929778217597 1.1363280006849252 4.221999009438205 1.298918652611226 4.113605241487337 1.298918652611226 C 4.0702477343069905 1.298918652611226 4.044955855118455 1.2627873966276035 4.044955855118455 1.2302692662423433 C 4.044955855118455 1.2031708242546266 4.053988669114361 1.179685507865272 4.066634608708628 1.1598133170742797 C 4.100959301893069 1.1038098702996648 4.153349623069322 1.027934232734058 4.189480879052945 0.984576725553711 C 4.1985136930488505 0.9737373487586243 4.202126818647212 0.9683176603610808 4.202126818647212 0.9628979719635375 C 4.202126818647212 0.9538651579676318 4.187674316253763 0.9412192183733641 4.176834939458677 0.9412192183733641 C 4.1696086882619525 0.9412192183733641 4.164188999864409 0.9466389067709073 4.151543060270141 0.9610914091643563 C 4.1172183670857 1.0026423535455222 4.072054297106171 1.0694851771152236 4.016050850331557 1.1399411262832873 C 3.931142398770044 1.2465283314349735 3.822748630819177 1.360341787783384 3.737840179257664 1.360341787783384 C 3.699902360474861 1.360341787783384 3.6728039184871437 1.3350499085948484 3.6728039184871437 1.2898858386153205 C 3.6728039184871437 1.148973940279193 3.8444273844093506 0.9556717207668131 3.887784891589697 0.9087010879881039 C 3.896817705585603 0.8996682739921983 3.902237393983146 0.8924420227954738 3.902237393983146 0.8870223343979304 C 3.902237393983146 0.8761829576028437 3.8895914543888783 0.8635370180085759 3.8751389519954293 0.8635370180085759 C 3.8480405100077126 0.8635370180085759 3.6186070345117103 1.1399411262832873 3.6186070345117103 1.2953055270128637 C 3.6186070345117103 1.3549220993858406 3.6655776672904197 1.4018927321645498 3.728807365261759 1.4018927321645498 C 3.835394570413445 1.4018927321645498 3.9546277151593987 1.2718202106235093 3.9979852223397456 1.2302692662423433 C 4.001598347938108 1.2934989642136827 4.0485689807168175 1.3386630341932106 4.108185553089794 1.3386630341932106 C 4.227418697835748 1.3386630341932106 4.3845896613645055 1.1598133170742797 4.3845896613645055 1.1598133170742797 M 4.8091663214909985 1.3242105317997617 C 4.8760091450607 1.3242105317997617 4.95549790822467 1.270013647824328 5.056665424978813 1.1598133170742797 C 5.056665424978813 1.1598133170742797 5.0656982389747185 1.148973940279193 5.0656982389747185 1.1417476890824685 C 5.0656982389747185 1.1327148750865628 5.058471987777994 1.1254886238898383 5.047632610982907 1.1254886238898383 C 5.040406359786182 1.1254886238898383 5.031373545790277 1.1363280006849252 5.031373545790277 1.1363280006849252 C 4.9374322802328585 1.24110864303743 4.868782893863976 1.2862727130169582 4.818199135486904 1.2862727130169582 C 4.771228502708196 1.2862727130169582 4.740516935122116 1.255561145430879 4.740516935122116 1.1887183218611777 C 4.740516935122116 1.1254886238898383 4.776648191105739 1.0821311167094914 4.776648191105739 1.0712917399144049 C 4.776648191105739 1.0568392375209559 4.764002251511471 1.0478064235250502 4.753162874716384 1.0478064235250502 C 4.736903809523755 1.0478064235250502 4.7025791163393125 1.1038098702996648 4.653801920761422 1.1616198798734607 C 4.594185348388446 1.2338823918407056 4.473145640843311 1.3476958481891161 4.397270003277703 1.3476958481891161 C 4.368364998490805 1.3476958481891161 4.350299370498995 1.3332433457956674 4.350299370498995 1.2953055270128637 C 4.350299370498995 1.1471673774800117 4.572506594798272 0.9141207763856473 4.771228502708196 0.9141207763856473 C 4.825425386683629 0.9141207763856473 4.839877889077078 0.9502520323692696 4.839877889077078 0.9755439115578053 C 4.839877889077078 0.9936095395496165 4.834458200679535 1.0026423535455222 4.834458200679535 1.0116751675414277 C 4.834458200679535 1.0189014187381522 4.8380713262778965 1.0225145443365145 4.845297577474621 1.0225145443365145 C 4.856136954269708 1.0225145443365145 4.877815707859882 0.9972226651479787 4.877815707859882 0.9647045347627186 C 4.877815707859882 0.9195404647831906 4.839877889077078 0.8743763948036626 4.754969437515565 0.8743763948036626 C 4.558054092404824 0.8743763948036626 4.301522174921104 1.1182623726931138 4.301522174921104 1.2953055270128637 C 4.301522174921104 1.3567286621850219 4.34307311930227 1.389246792570282 4.39185031488016 1.389246792570282 C 4.483985017638397 1.389246792570282 4.621283790376163 1.2573677082300603 4.691739739544226 1.1760723822669097 C 4.691739739544226 1.2627873966276035 4.740516935122116 1.3242105317997617 4.8091663214909985 1.3242105317997617 M 5.304138947255114 0.8129532596315044 C 5.197551742103428 0.8003073200372366 5.0891579741525605 0.7099791800781806 5.0891579741525605 0.5654541561436909 C 5.0891579741525605 0.35408630863949975 5.31317176125102 0.21136784750419113 5.600415246320818 0.21136784750419113 C 5.7955240286323795 0.21136784750419113 5.987019685345578 0.283630359471436 6.145997211673516 0.3757650622296732 C 6.043023132120193 0.552808216549423 5.898498108185703 0.8906354599962927 5.898498108185703 1.3422761597915729 C 5.898498108185703 1.553644007295764 5.9526949921611365 1.658424649648269 5.97437374575131 1.658424649648269 C 5.994245936542303 1.658424649648269 6.010505001734932 1.6493918356523634 6.032183755325105 1.6367458960580956 C 6.350138807980983 1.4452502393448967 7.0799901788501565 0.7479169988609842 7.0799901788501565 0.22040066150009685 C 7.0799901788501565 0.06864938636888263 6.996888290087824 0 6.986048913292738 0 C 6.980629224895194 0 6.975209536497651 0.005419688397543476 6.975209536497651 0.01083937679508673 C 6.975209536497651 0.023485316389354693 7.029406420473085 0.057810009573795895 7.029406420473085 0.21498097310255337 C 7.029406420473085 0.7190119940740862 6.310394426398998 1.4235714857547233 5.996052499341483 1.6060343284720164 C 5.996052499341483 1.6060343284720164 5.954501554960318 1.5193193141113228 5.954501554960318 1.3549220993858406 C 5.954501554960318 0.924960153180734 6.091800327698083 0.581713221336321 6.18393503045632 0.39744381581984667 L 6.2236794120383045 0.4227356950083824 C 6.234518788833391 0.42996194620510686 6.239938477230934 0.4335750718034691 6.2453581656284785 0.4335750718034691 C 6.250777854026022 0.4335750718034691 6.259810668021927 0.42092913220920125 6.259810668021927 0.4155094438116579 C 6.259810668021927 0.4100897554141145 6.254390979624384 0.40467006701657116 6.248971291226841 0.4010569414182089 C 6.23271222603421 0.3902175646231222 6.2164531608415805 0.37757162502885433 6.198387532849769 0.3667322482337676 C 6.234518788833391 0.29627629906570396 6.261617230821108 0.2565319174837193 6.261617230821108 0.25291879188535704 C 6.261617230821108 0.24388597788945132 6.2525844168252025 0.23665972669272684 6.243551602829297 0.23665972669272684 C 6.2381319144317535 0.23665972669272684 6.207420346845675 0.2745975454755305 6.164062839665328 0.343246931844413 C 5.999665624939846 0.23846628949190807 5.8027502798291035 0.1662037775246632 5.600415246320818 0.1662037775246632 C 5.2680076912714915 0.1662037775246632 5.033154527377946 0.33060099225014516 5.033154527377946 0.5654541561436909 C 5.033154527377946 0.7352710592667163 5.183099239709979 0.8400517016192213 5.295106133259209 0.8400517016192213 C 5.311365198451838 0.8400517016192213 5.320398012447744 0.8346320132216779 5.320398012447744 0.8237926364265912 C 5.320398012447744 0.8183729480290478 5.316784886849382 0.8147598224306856 5.304138947255114 0.8129532596315044 M 7.257094198811089 1.1598133170742797 C 7.257094198811089 1.1598133170742797 7.266127012806995 1.148973940279193 7.266127012806995 1.1417476890824685 C 7.266127012806995 1.1327148750865628 7.2589007616102705 1.1254886238898383 7.248061384815183 1.1254886238898383 C 7.240835133618459 1.1254886238898383 7.231802319622553 1.1363280006849252 7.231802319622553 1.1363280006849252 C 7.231802319622553 1.1363280006849252 7.065598542097891 1.3187908434022184 6.957204774147023 1.3187908434022184 C 6.915653829765858 1.3187908434022184 6.8885553877781405 1.2934989642136827 6.8885553877781405 1.2519480198325168 C 6.8885553877781405 1.1471673774800117 7.025854160515905 0.9773504743569865 7.069211667696252 0.924960153180734 C 7.076437918892977 0.9159273391848284 7.078244481692158 0.9087010879881039 7.078244481692158 0.9050879623897417 C 7.078244481692158 0.8942485855946549 7.069211667696252 0.8852157715987493 7.056565728101985 0.8852157715987493 C 7.027660723315087 0.8852157715987493 6.83977819220025 1.1291017494882007 6.83977819220025 1.2519480198325168 C 6.83977819220025 1.3169842806030372 6.883135699380597 1.3567286621850219 6.944558834552756 1.3567286621850219 C 7.083664170089701 1.3567286621850219 7.257094198811089 1.1598133170742797 7.257094198811089 1.1598133170742797 M 7.219156380028285 0.6359101053117546 C 7.19386450083975 0.6359101053117546 7.164959496052852 0.6756544868937393 7.164959496052852 0.7063660544798184 C 7.164959496052852 0.7244316824716296 7.17760543564712 0.7334644964675352 7.19386450083975 0.7334644964675352 C 7.222769505626648 0.7334644964675352 7.248061384815183 0.686493863688826 7.248061384815183 0.6612019845002903 C 7.248061384815183 0.6449429193076602 7.235415445220916 0.6359101053117546 7.219156380028285 0.6359101053117546 M 7.641888546593701 1.2067839498529889 C 7.641888546593701 1.1959445730579021 7.641888546593701 1.1851051962628154 7.643695109392882 1.1706526938693664 C 7.883967961683971 0.9430257811725451 8.136886753569328 0.6015854121273133 8.136886753569328 0.48054570458217827 C 8.136886753569328 0.4245422578075635 8.102562060384887 0.39563725302066555 8.05739799040536 0.39563725302066555 C 7.9146795292700505 0.39563725302066555 7.752088877343749 0.6792676124921015 7.661760737384693 0.924960153180734 C 7.649114797790426 0.910507650787285 7.620209793003528 0.8870223343979304 7.564206346228913 0.8870223343979304 C 7.421487885093605 0.8870223343979304 7.192054409597602 1.0929704935045783 7.192054409597602 1.270013647824328 C 7.192054409597602 1.3404695969923917 7.244444730773854 1.389246792570282 7.305867865946013 1.389246792570282 C 7.372710689515714 1.389246792570282 7.4792978946674005 1.3187908434022184 7.594917913814992 1.2158167638488944 C 7.596724476614173 1.3097580294063127 7.649114797790426 1.3495024109882974 7.719570746958489 1.3495024109882974 C 7.855062956897073 1.3495024109882974 8.019460171622555 1.1598133170742797 8.019460171622555 1.1598133170742797 C 8.019460171622555 1.1598133170742797 8.028492985618461 1.148973940279193 8.028492985618461 1.1417476890824685 C 8.028492985618461 1.1327148750865628 8.021266734421737 1.1254886238898383 8.01042735762665 1.1254886238898383 C 8.003201106429925 1.1254886238898383 7.994168292434019 1.1363280006849252 7.994168292434019 1.1363280006849252 C 7.994168292434019 1.1363280006849252 7.84964326849953 1.3079514666071317 7.723183872556851 1.3079514666071317 C 7.685246053774048 1.3079514666071317 7.641888546593701 1.2880792758161392 7.641888546593701 1.2067839498529889 M 7.309480991544374 1.3476958481891161 C 7.271543172761572 1.3476958481891161 7.239025042376311 1.3205974062013994 7.239025042376311 1.2754333362218715 C 7.239025042376311 1.120068935492295 7.448586327081321 0.924960153180734 7.571432597425638 0.924960153180734 C 7.618403230204346 0.924960153180734 7.638275420995338 0.9466389067709073 7.649114797790426 0.9647045347627186 C 7.62382291860189 1.0387736095291447 7.605757290610079 1.1074229958980273 7.598531039413354 1.163426442672642 C 7.481104457466581 1.2718202106235093 7.372710689515714 1.3476958481891161 7.309480991544374 1.3476958481891161 M 8.053784864806996 0.43718819740183135 C 8.07727018119635 0.43718819740183135 8.095335809188162 0.4516406997952803 8.095335809188162 0.476932578983816 C 8.095335809188162 0.5907460353322266 7.8713220220897036 0.8924420227954738 7.654534486187969 1.1092295586972083 C 7.708731370163402 0.8725698320044815 7.9074532780733255 0.43718819740183135 8.053784864806996 0.43718819740183135" fill="#fff6f6" fill-rule="nonzero"></path></g><g><path d=" M 0.166875 2.5511511052166815 L 0.1978125 2.5511511052166815 L 0.2446875 2.6692761052166816 L 0.29203124999999996 2.5511511052166815 L 0.3234375 2.5511511052166815 L 0.2653125 2.6931823552166816 L 0.3290625 2.8436511052166815 L 0.44953125 2.5488073552166814 L 0.48515624999999996 2.5488073552166814 L 0.3440625 2.8816198552166816 L 0.315 2.8816198552166816 L 0.24515625 2.7170886052166816 L 0.17484375 2.8816198552166816 L 0.14625 2.8816198552166816 L 0.005625 2.5488073552166814 L 0.04078125 2.5488073552166814 L 0.16171875 2.8436511052166815 L 0.22499999999999998 2.6931823552166816 L 0.166875 2.5511511052166815 M 0.5266502380371094 2.8816198552166816 L 0.5266502380371094 2.6374011052166817 L 0.5585252380371094 2.6374011052166817 L 0.5585252380371094 2.8816198552166816 L 0.5266502380371094 2.8816198552166816 M 0.5266502380371094 2.5863073552166815 L 0.5266502380371094 2.5394323552166815 L 0.5585252380371094 2.5394323552166815 L 0.5585252380371094 2.5863073552166815 L 0.5266502380371094 2.5863073552166815 M 0.7472053527832031 2.8699011052166816 Q 0.7434553527832031 2.8713073552166817 0.7354866027832031 2.875057355216682 Q 0.7275178527832031 2.8788073552166815 0.7162678527832032 2.8816198552166816 Q 0.7050178527832031 2.8844323552166817 0.6918928527832031 2.8844323552166817 Q 0.678299102783203 2.8844323552166817 0.6663459777832031 2.8792761052166815 Q 0.6543928527832031 2.874119855216682 0.6473616027832031 2.8635729802166816 Q 0.640330352783203 2.8530261052166814 0.640330352783203 2.8375573552166817 L 0.640330352783203 2.6627136052166818 L 0.6065803527832031 2.6627136052166818 L 0.6065803527832031 2.6374011052166817 L 0.640330352783203 2.6374011052166817 L 0.640330352783203 2.5549011052166817 L 0.6722053527832031 2.5549011052166817 L 0.6722053527832031 2.6374011052166817 L 0.7284553527832031 2.6374011052166817 L 0.7284553527832031 2.6627136052166818 L 0.6722053527832031 2.6627136052166818 L 0.6722053527832031 2.828651105216682 Q 0.6731428527832031 2.8417761052166814 0.6818147277832031 2.8483386052166817 Q 0.6904866027832031 2.8549011052166815 0.701736602783203 2.8549011052166815 Q 0.7148616027832031 2.8549011052166815 0.7256428527832031 2.8504479802166816 Q 0.7364241027832031 2.8459948552166816 0.7387678527832031 2.8441198552166815 L 0.7472053527832031 2.8699011052166816 M 0.9935437774658202 2.8816198552166816 L 0.9616687774658202 2.8816198552166816 L 0.9616687774658202 2.745213605216682 Q 0.9616687774658202 2.7039636052166816 0.9471375274658203 2.6831042302166814 Q 0.9326062774658203 2.6622448552166817 0.9054187774658202 2.6622448552166817 Q 0.8876062774658202 2.6622448552166817 0.8700281524658202 2.6713854802166814 Q 0.8524500274658202 2.6805261052166816 0.8390906524658203 2.6962292302166815 Q 0.8257312774658202 2.711932355216682 0.8201062774658202 2.7320886052166817 L 0.8201062774658202 2.8816198552166816 L 0.7882312774658202 2.8816198552166816 L 0.7882312774658202 2.5394323552166815 L 0.8201062774658202 2.5394323552166815 L 0.8201062774658202 2.6927136052166816 Q 0.8346375274658202 2.6655261052166814 0.8606531524658202 2.6493542302166815 Q 0.8866687774658202 2.6331823552166815 0.9162000274658202 2.6331823552166815 Q 0.9372937774658202 2.6331823552166815 0.9520594024658202 2.640682355216682 Q 0.9668250274658202 2.6481823552166817 0.9759656524658202 2.6624792302166815 Q 0.9851062774658202 2.676776105216682 0.9893250274658202 2.6957604802166815 Q 0.9935437774658202 2.7147448552166815 0.9935437774658202 2.7386511052166815 L 0.9935437774658202 2.8816198552166816 M 1.1899559783935547 2.8816198552166816 L 1.1899559783935547 2.5488073552166814 L 1.2227684783935546 2.5488073552166814 L 1.2227684783935546 2.8525573552166814 L 1.4149559783935546 2.8525573552166814 L 1.4149559783935546 2.8816198552166816 L 1.1899559783935547 2.8816198552166816 M 1.4381627655029297 2.8113073552166816 Q 1.4381627655029297 2.7883386052166816 1.4512877655029297 2.7716979802166817 Q 1.4644127655029298 2.7550573552166817 1.4876158905029297 2.7459167302166816 Q 1.5108190155029297 2.7367761052166815 1.5412877655029298 2.7367761052166815 Q 1.5591002655029298 2.7367761052166815 1.5783190155029296 2.7395886052166816 Q 1.5975377655029297 2.7424011052166817 1.6125377655029298 2.7480261052166814 L 1.6125377655029298 2.7274011052166816 Q 1.6125377655029298 2.6964636052166817 1.5942565155029298 2.6781823552166815 Q 1.5759752655029298 2.6599011052166817 1.5436315155029297 2.6599011052166817 Q 1.5239440155029298 2.6599011052166817 1.5049596405029297 2.6671667302166817 Q 1.4859752655029297 2.6744323552166818 1.4653502655029298 2.688494855216682 L 1.4531627655029298 2.6659948552166814 Q 1.4770690155029298 2.6495886052166817 1.5000377655029298 2.6413854802166816 Q 1.5230065155029298 2.6331823552166815 1.5469127655029298 2.6331823552166815 Q 1.5919127655029297 2.6331823552166815 1.6181627655029298 2.6589636052166816 Q 1.6444127655029297 2.6847448552166817 1.6444127655029297 2.7302136052166817 L 1.6444127655029297 2.8431823552166815 Q 1.6444127655029297 2.8497448552166817 1.6472252655029298 2.8527917302166816 Q 1.6500377655029297 2.8558386052166815 1.6561315155029297 2.8563073552166816 L 1.6561315155029297 2.8816198552166816 Q 1.6509752655029297 2.8820886052166816 1.6472252655029298 2.8825573552166817 Q 1.6434752655029297 2.8830261052166817 1.6416002655029298 2.8825573552166817 Q 1.6298815155029298 2.8820886052166816 1.6237877655029298 2.875057355216682 Q 1.6176940155029298 2.8680261052166816 1.6172252655029298 2.8600573552166817 L 1.6167565155029298 2.8422448552166815 Q 1.6003502655029298 2.863338605216682 1.5741002655029297 2.8748229802166816 Q 1.5478502655029298 2.886307355216682 1.5206627655029297 2.886307355216682 Q 1.4972252655029297 2.886307355216682 1.4782408905029296 2.8762292302166816 Q 1.4592565155029298 2.8661511052166815 1.4487096405029298 2.8490417302166815 Q 1.4381627655029297 2.8319323552166815 1.4381627655029297 2.8113073552166816 M 1.6017565155029296 2.8300573552166814 Q 1.6069127655029298 2.8234948552166816 1.6097252655029297 2.817401105216682 Q 1.6125377655029298 2.8113073552166816 1.6125377655029298 2.8066198552166814 L 1.6125377655029298 2.7709948552166814 Q 1.5966002655029297 2.7649011052166816 1.5794908905029297 2.7616198552166815 Q 1.5623815155029297 2.758338605216682 1.5450377655029297 2.758338605216682 Q 1.5108190155029297 2.758338605216682 1.4897252655029298 2.7719323552166815 Q 1.4686315155029297 2.7855261052166815 1.4686315155029297 2.8089636052166815 Q 1.4686315155029297 2.8225573552166816 1.4756627655029297 2.834510480216682 Q 1.4826940155029298 2.8464636052166816 1.4962877655029296 2.8541979802166817 Q 1.5098815155029297 2.8619323552166818 1.5281627655029297 2.8619323552166818 Q 1.5511315155029297 2.8619323552166818 1.5710533905029298 2.8530261052166814 Q 1.5909752655029297 2.8441198552166815 1.6017565155029296 2.8300573552166814 M 1.919795379638672 2.8816198552166816 L 1.8879203796386719 2.8816198552166816 L 1.8879203796386719 2.745213605216682 Q 1.8879203796386719 2.7020886052166815 1.8752641296386718 2.682166730216682 Q 1.862607879638672 2.6622448552166817 1.8354203796386719 2.6622448552166817 Q 1.8166703796386718 2.6622448552166817 1.798389129638672 2.6713854802166814 Q 1.780107879638672 2.6805261052166816 1.766279754638672 2.6962292302166815 Q 1.752451629638672 2.711932355216682 1.746357879638672 2.7320886052166817 L 1.746357879638672 2.8816198552166816 L 1.714482879638672 2.8816198552166816 L 1.714482879638672 2.6374011052166817 L 1.743545379638672 2.6374011052166817 L 1.743545379638672 2.6927136052166816 Q 1.7533891296386719 2.674901105216682 1.769326629638672 2.6615417302166815 Q 1.785264129638672 2.6481823552166817 1.8054203796386719 2.640682355216682 Q 1.825576629638672 2.6331823552166815 1.8471391296386719 2.6331823552166815 Q 1.867295379638672 2.6331823552166815 1.881357879638672 2.640682355216682 Q 1.895420379638672 2.6481823552166817 1.903857879638672 2.6620104802166815 Q 1.912295379638672 2.675838605216682 1.916045379638672 2.6952917302166814 Q 1.919795379638672 2.7147448552166815 1.919795379638672 2.7386511052166815 L 1.919795379638672 2.8816198552166816 M 2.086908416748047 2.8849011052166817 Q 2.062064666748047 2.8849011052166817 2.040970916748047 2.874588605216682 Q 2.019877166748047 2.8642761052166814 2.004642791748047 2.8466979802166814 Q 1.989408416748047 2.8291198552166814 1.980970916748047 2.8066198552166814 Q 1.972533416748047 2.7841198552166815 1.972533416748047 2.7602136052166815 Q 1.972533416748047 2.734432355216682 1.980736541748047 2.7116979802166816 Q 1.988939666748047 2.6889636052166814 2.004174041748047 2.6711511052166816 Q 2.019408416748047 2.653338605216682 2.040033416748047 2.6432604802166817 Q 2.060658416748047 2.6331823552166815 2.085970916748047 2.6331823552166815 Q 2.1173771667480468 2.6331823552166815 2.140580291748047 2.6491198552166817 Q 2.163783416748047 2.665057355216682 2.179720916748047 2.688494855216682 L 2.179720916748047 2.6374011052166817 L 2.208314666748047 2.6374011052166817 L 2.208314666748047 2.8825573552166817 Q 2.208314666748047 2.9163073552166816 2.192142791748047 2.939510480216682 Q 2.1759709167480468 2.9627136052166816 2.148549041748047 2.9744323552166816 Q 2.121127166748047 2.9861511052166816 2.088783416748047 2.9861511052166816 Q 2.047064666748047 2.9861511052166816 2.021283416748047 2.9711511052166815 Q 1.995502166748047 2.956151105216682 1.979095916748047 2.9308386052166817 L 1.998783416748047 2.9153698552166816 Q 2.013314666748047 2.9383386052166816 2.037455291748047 2.9495886052166815 Q 2.061595916748047 2.9608386052166815 2.088783416748047 2.9608386052166815 Q 2.112689666748047 2.9608386052166815 2.132611541748047 2.9521667302166814 Q 2.1525334167480468 2.9434948552166817 2.164486541748047 2.9261511052166815 Q 2.1764396667480472 2.9088073552166818 2.1764396667480472 2.8825573552166817 L 2.1764396667480472 2.8342761052166816 Q 2.162377166748047 2.8572448552166816 2.138002166748047 2.8710729802166814 Q 2.113627166748047 2.8849011052166817 2.086908416748047 2.8849011052166817 M 2.095814666748047 2.8581823552166816 Q 2.110345916748047 2.8581823552166816 2.1237052917480472 2.8530261052166814 Q 2.137064666748047 2.8478698552166817 2.148314666748047 2.8391979802166816 Q 2.159564666748047 2.8305261052166815 2.167064666748047 2.8197448552166815 Q 2.174564666748047 2.8089636052166815 2.1764396667480472 2.7977136052166816 L 2.1764396667480472 2.722244855216682 Q 2.169408416748047 2.7044323552166816 2.156283416748047 2.6906042302166817 Q 2.143158416748047 2.676776105216682 2.126517791748047 2.669041730216682 Q 2.109877166748047 2.6613073552166817 2.092064666748047 2.6613073552166817 Q 2.071439666748047 2.6613073552166817 2.055267791748047 2.669979230216682 Q 2.039095916748047 2.6786511052166815 2.028080291748047 2.692947980216682 Q 2.017064666748047 2.7072448552166817 2.010970916748047 2.7250573552166815 Q 2.004877166748047 2.7428698552166817 2.004877166748047 2.7606823552166815 Q 2.004877166748047 2.780369855216682 2.011908416748047 2.797947980216682 Q 2.018939666748047 2.815526105216682 2.031361541748047 2.8293542302166816 Q 2.043783416748047 2.8431823552166815 2.060424041748047 2.850682355216682 Q 2.077064666748047 2.8581823552166816 2.095814666748047 2.8581823552166816 M 2.2774463653564454 2.780838605216682 L 2.2774463653564454 2.6374011052166817 L 2.3093213653564453 2.6374011052166817 L 2.3093213653564453 2.7752136052166816 Q 2.3093213653564453 2.816932355216682 2.3236182403564456 2.8375573552166817 Q 2.3379151153564455 2.8581823552166816 2.3660401153564457 2.8581823552166816 Q 2.3847901153564455 2.8581823552166816 2.4023682403564455 2.8499792302166815 Q 2.4199463653564455 2.8417761052166814 2.4335401153564455 2.8265417302166815 Q 2.4471338653564456 2.8113073552166816 2.4541651153564454 2.7911511052166817 L 2.4541651153564454 2.6374011052166817 L 2.4860401153564453 2.6374011052166817 L 2.4860401153564453 2.8431823552166815 Q 2.4860401153564453 2.8497448552166817 2.4888526153564454 2.8527917302166816 Q 2.4916651153564455 2.8558386052166815 2.4972901153564453 2.8563073552166816 L 2.4972901153564453 2.8816198552166816 Q 2.4916651153564455 2.8820886052166816 2.4883838653564454 2.8823229802166814 Q 2.4851026153564453 2.8825573552166817 2.4822901153564456 2.8825573552166817 Q 2.4729151153564457 2.8816198552166816 2.4661182403564457 2.875057355216682 Q 2.4593213653564456 2.8684948552166816 2.4588526153564456 2.8591198552166817 L 2.4579151153564456 2.8263073552166817 Q 2.4419776153564454 2.8544323552166815 2.4145557403564455 2.8703698552166816 Q 2.3871338653564456 2.886307355216682 2.3552588653564457 2.886307355216682 Q 2.3168213653564456 2.886307355216682 2.2971338653564457 2.8595886052166817 Q 2.2774463653564454 2.8328698552166816 2.2774463653564454 2.780838605216682 M 2.539709243774414 2.8113073552166816 Q 2.539709243774414 2.7883386052166816 2.5528342437744143 2.7716979802166817 Q 2.565959243774414 2.7550573552166817 2.589162368774414 2.7459167302166816 Q 2.612365493774414 2.7367761052166815 2.642834243774414 2.7367761052166815 Q 2.660646743774414 2.7367761052166815 2.679865493774414 2.7395886052166816 Q 2.699084243774414 2.7424011052166817 2.714084243774414 2.7480261052166814 L 2.714084243774414 2.7274011052166816 Q 2.714084243774414 2.6964636052166817 2.695802993774414 2.6781823552166815 Q 2.677521743774414 2.6599011052166817 2.645177993774414 2.6599011052166817 Q 2.625490493774414 2.6599011052166817 2.606506118774414 2.6671667302166817 Q 2.5875217437744142 2.6744323552166818 2.566896743774414 2.688494855216682 L 2.554709243774414 2.6659948552166814 Q 2.578615493774414 2.6495886052166817 2.601584243774414 2.6413854802166816 Q 2.624552993774414 2.6331823552166815 2.648459243774414 2.6331823552166815 Q 2.6934592437744143 2.6331823552166815 2.719709243774414 2.6589636052166816 Q 2.745959243774414 2.6847448552166817 2.745959243774414 2.7302136052166817 L 2.745959243774414 2.8431823552166815 Q 2.745959243774414 2.8497448552166817 2.748771743774414 2.8527917302166816 Q 2.7515842437744142 2.8558386052166815 2.757677993774414 2.8563073552166816 L 2.757677993774414 2.8816198552166816 Q 2.7525217437744143 2.8820886052166816 2.748771743774414 2.8825573552166817 Q 2.745021743774414 2.8830261052166817 2.743146743774414 2.8825573552166817 Q 2.731427993774414 2.8820886052166816 2.725334243774414 2.875057355216682 Q 2.719240493774414 2.8680261052166816 2.718771743774414 2.8600573552166817 L 2.718302993774414 2.8422448552166815 Q 2.701896743774414 2.863338605216682 2.675646743774414 2.8748229802166816 Q 2.649396743774414 2.886307355216682 2.6222092437744142 2.886307355216682 Q 2.5987717437744142 2.886307355216682 2.579787368774414 2.8762292302166816 Q 2.560802993774414 2.8661511052166815 2.550256118774414 2.8490417302166815 Q 2.539709243774414 2.8319323552166815 2.539709243774414 2.8113073552166816 M 2.703302993774414 2.8300573552166814 Q 2.708459243774414 2.8234948552166816 2.711271743774414 2.817401105216682 Q 2.714084243774414 2.8113073552166816 2.714084243774414 2.8066198552166814 L 2.714084243774414 2.7709948552166814 Q 2.698146743774414 2.7649011052166816 2.681037368774414 2.7616198552166815 Q 2.663927993774414 2.758338605216682 2.6465842437744143 2.758338605216682 Q 2.612365493774414 2.758338605216682 2.591271743774414 2.7719323552166815 Q 2.570177993774414 2.7855261052166815 2.570177993774414 2.8089636052166815 Q 2.570177993774414 2.8225573552166816 2.577209243774414 2.834510480216682 Q 2.584240493774414 2.8464636052166816 2.597834243774414 2.8541979802166817 Q 2.6114279937744143 2.8619323552166818 2.629709243774414 2.8619323552166818 Q 2.652677993774414 2.8619323552166818 2.672599868774414 2.8530261052166814 Q 2.6925217437744142 2.8441198552166815 2.703302993774414 2.8300573552166814 M 2.9139981079101562 2.8849011052166817 Q 2.889154357910156 2.8849011052166817 2.8680606079101563 2.874588605216682 Q 2.846966857910156 2.8642761052166814 2.831732482910156 2.8466979802166814 Q 2.816498107910156 2.8291198552166814 2.808060607910156 2.8066198552166814 Q 2.799623107910156 2.7841198552166815 2.799623107910156 2.7602136052166815 Q 2.799623107910156 2.734432355216682 2.807826232910156 2.7116979802166816 Q 2.816029357910156 2.6889636052166814 2.831263732910156 2.6711511052166816 Q 2.846498107910156 2.653338605216682 2.8671231079101562 2.6432604802166817 Q 2.887748107910156 2.6331823552166815 2.913060607910156 2.6331823552166815 Q 2.944466857910156 2.6331823552166815 2.9676699829101563 2.6491198552166817 Q 2.990873107910156 2.665057355216682 3.006810607910156 2.688494855216682 L 3.006810607910156 2.6374011052166817 L 3.035404357910156 2.6374011052166817 L 3.035404357910156 2.8825573552166817 Q 3.035404357910156 2.9163073552166816 3.019232482910156 2.939510480216682 Q 3.003060607910156 2.9627136052166816 2.975638732910156 2.9744323552166816 Q 2.948216857910156 2.9861511052166816 2.915873107910156 2.9861511052166816 Q 2.874154357910156 2.9861511052166816 2.848373107910156 2.9711511052166815 Q 2.822591857910156 2.956151105216682 2.806185607910156 2.9308386052166817 L 2.825873107910156 2.9153698552166816 Q 2.840404357910156 2.9383386052166816 2.864544982910156 2.9495886052166815 Q 2.888685607910156 2.9608386052166815 2.915873107910156 2.9608386052166815 Q 2.939779357910156 2.9608386052166815 2.959701232910156 2.9521667302166814 Q 2.979623107910156 2.9434948552166817 2.9915762329101563 2.9261511052166815 Q 3.003529357910156 2.9088073552166818 3.003529357910156 2.8825573552166817 L 3.003529357910156 2.8342761052166816 Q 2.989466857910156 2.8572448552166816 2.965091857910156 2.8710729802166814 Q 2.940716857910156 2.8849011052166817 2.9139981079101562 2.8849011052166817 M 2.922904357910156 2.8581823552166816 Q 2.9374356079101562 2.8581823552166816 2.950794982910156 2.8530261052166814 Q 2.964154357910156 2.8478698552166817 2.975404357910156 2.8391979802166816 Q 2.986654357910156 2.8305261052166815 2.994154357910156 2.8197448552166815 Q 3.001654357910156 2.8089636052166815 3.003529357910156 2.7977136052166816 L 3.003529357910156 2.722244855216682 Q 2.9964981079101562 2.7044323552166816 2.983373107910156 2.6906042302166817 Q 2.970248107910156 2.676776105216682 2.953607482910156 2.669041730216682 Q 2.936966857910156 2.6613073552166817 2.919154357910156 2.6613073552166817 Q 2.898529357910156 2.6613073552166817 2.882357482910156 2.669979230216682 Q 2.866185607910156 2.6786511052166815 2.855169982910156 2.692947980216682 Q 2.8441543579101562 2.7072448552166817 2.838060607910156 2.7250573552166815 Q 2.8319668579101562 2.7428698552166817 2.8319668579101562 2.7606823552166815 Q 2.8319668579101562 2.780369855216682 2.838998107910156 2.797947980216682 Q 2.846029357910156 2.815526105216682 2.858451232910156 2.8293542302166816 Q 2.870873107910156 2.8431823552166815 2.887513732910156 2.850682355216682 Q 2.904154357910156 2.8581823552166816 2.922904357910156 2.8581823552166816 M 3.2123485565185543 2.886307355216682 Q 3.1860985565185542 2.886307355216682 3.1635985565185543 2.8762292302166816 Q 3.1410985565185543 2.8661511052166815 3.124692306518554 2.8485729802166815 Q 3.1082860565185544 2.8309948552166815 3.0991454315185543 2.8080261052166815 Q 3.090004806518554 2.7850573552166815 3.090004806518554 2.758807355216682 Q 3.090004806518554 2.7245886052166814 3.1057079315185545 2.6959948552166817 Q 3.1214110565185544 2.6674011052166815 3.149067306518554 2.6502917302166815 Q 3.1767235565185543 2.6331823552166815 3.2118798065185543 2.6331823552166815 Q 3.2479735565185543 2.6331823552166815 3.2749266815185543 2.6505261052166817 Q 3.301879806518554 2.6678698552166815 3.3173485565185543 2.6962292302166815 Q 3.3328173065185545 2.7245886052166814 3.3328173065185545 2.758338605216682 Q 3.3328173065185545 2.7620886052166815 3.3328173065185545 2.7656042302166814 Q 3.3328173065185545 2.769119855216682 3.3323485565185544 2.7709948552166814 L 3.1232860565185545 2.7709948552166814 Q 3.125629806518554 2.7972448552166815 3.1380516815185544 2.8176354802166816 Q 3.150473556518554 2.8380261052166817 3.1703954315185543 2.8499792302166815 Q 3.1903173065185544 2.8619323552166818 3.2137548065185544 2.8619323552166818 Q 3.2376610565185544 2.8619323552166818 3.2589891815185545 2.8497448552166817 Q 3.2803173065185542 2.8375573552166817 3.288754806518554 2.8178698552166814 L 3.3164110565185543 2.8253698552166817 Q 3.3089110565185544 2.8427136052166815 3.2934423065185543 2.8567761052166816 Q 3.277973556518554 2.8708386052166817 3.2571141815185545 2.8785729802166817 Q 3.2362548065185543 2.886307355216682 3.2123485565185543 2.886307355216682 M 3.1223485565185545 2.7480261052166814 L 3.302817306518554 2.7480261052166814 Q 3.300942306518554 2.7213073552166818 3.2885204315185543 2.7011511052166814 Q 3.2760985565185545 2.6809948552166816 3.2561766815185544 2.669510480216682 Q 3.2362548065185543 2.6580261052166816 3.2123485565185543 2.6580261052166816 Q 3.1884423065185543 2.6580261052166816 3.1687548065185545 2.669510480216682 Q 3.149067306518554 2.6809948552166816 3.1366454315185543 2.7013854802166817 Q 3.1242235565185545 2.721776105216682 3.1223485565185545 2.7480261052166814 M 3.4633525085449213 2.886307355216682 Q 3.4333525085449215 2.886307355216682 3.4075712585449214 2.8764636052166814 Q 3.3817900085449213 2.8666198552166815 3.3630400085449215 2.8464636052166816 L 3.3761650085449215 2.8239636052166817 Q 3.3967900085449214 2.8431823552166815 3.4176493835449215 2.8518542302166816 Q 3.438508758544921 2.8605261052166817 3.461946258544921 2.8605261052166817 Q 3.4905400085449214 2.8605261052166817 3.508352508544921 2.8490417302166815 Q 3.5261650085449214 2.8375573552166817 3.5261650085449214 2.815994855216682 Q 3.5261650085449214 2.8014636052166817 3.5174931335449213 2.7937292302166816 Q 3.508821258544921 2.7859948552166816 3.4926493835449213 2.7810729802166816 Q 3.4764775085449213 2.7761511052166816 3.4539775085449214 2.770526105216682 Q 3.4286650085449213 2.7634948552166816 3.4115556335449213 2.7557604802166815 Q 3.3944462585449213 2.7480261052166814 3.385774383544921 2.7360729802166817 Q 3.3771025085449216 2.7241198552166814 3.3771025085449216 2.7049011052166816 Q 3.3771025085449216 2.6809948552166816 3.3890556335449213 2.6652917302166816 Q 3.401008758544921 2.6495886052166817 3.4218681335449213 2.6413854802166816 Q 3.4427275085449214 2.6331823552166815 3.4685087585449215 2.6331823552166815 Q 3.496633758544921 2.6331823552166815 3.518196258544921 2.6420886052166814 Q 3.5397587585449215 2.6509948552166818 3.553352508544921 2.6669323552166815 L 3.5378837585449214 2.688494855216682 Q 3.5247587585449214 2.6734948552166817 3.5067118835449214 2.6662292302166817 Q 3.4886650085449213 2.6589636052166816 3.4666337585449214 2.6589636052166816 Q 3.4516337585449213 2.6589636052166816 3.438040008544921 2.6629479802166816 Q 3.424446258544921 2.6669323552166815 3.4157743835449215 2.6760729802166816 Q 3.4071025085449214 2.6852136052166817 3.4071025085449214 2.7011511052166814 Q 3.4071025085449214 2.7142761052166815 3.413665008544921 2.7215417302166816 Q 3.4202275085449214 2.7288073552166816 3.4333525085449215 2.7337292302166816 Q 3.4464775085449215 2.7386511052166815 3.4656962585449214 2.7442761052166817 Q 3.4933525085449215 2.7517761052166816 3.5139775085449214 2.7595104802166817 Q 3.5346025085449213 2.7672448552166817 3.5458525085449213 2.7794323552166817 Q 3.5571025085449213 2.7916198552166818 3.5571025085449213 2.8136511052166817 Q 3.5571025085449213 2.8478698552166817 3.531321258544921 2.8670886052166815 Q 3.5055400085449215 2.886307355216682 3.4633525085449213 2.886307355216682 M 3.615917129516601 2.9195886052166817 L 3.623885879516601 2.8802136052166816 L 3.613104629516601 2.8802136052166816 L 3.613104629516601 2.8356823552166817 L 3.644042129516601 2.8356823552166817 L 3.644042129516601 2.8802136052166816 L 3.632323379516601 2.9195886052166817 L 3.615917129516601 2.9195886052166817 M 3.8301393127441394 2.5488073552166814 L 3.9388893127441396 2.7278698552166816 L 4.048576812744139 2.5488073552166814 L 4.08420181274414 2.5488073552166814 L 3.9552955627441397 2.757869855216682 L 3.9552955627441397 2.8816198552166816 L 3.9224830627441394 2.8816198552166816 L 3.9224830627441394 2.756932355216682 L 3.7940455627441394 2.5488073552166814 L 3.8301393127441394 2.5488073552166814 M 4.188977279663085 2.886307355216682 Q 4.162727279663085 2.886307355216682 4.140461654663085 2.8762292302166816 Q 4.118196029663085 2.8661511052166815 4.102024154663085 2.8485729802166815 Q 4.085852279663085 2.8309948552166815 4.076946029663085 2.8082604802166817 Q 4.068039779663085 2.7855261052166815 4.068039779663085 2.7602136052166815 Q 4.068039779663085 2.733963605216682 4.076946029663085 2.7112292302166816 Q 4.085852279663085 2.688494855216682 4.102258529663085 2.670916730216682 Q 4.118664779663085 2.653338605216682 4.140930404663084 2.6432604802166817 Q 4.1631960296630846 2.6331823552166815 4.189446029663085 2.6331823552166815 Q 4.215696029663085 2.6331823552166815 4.237727279663084 2.6432604802166817 Q 4.259758529663085 2.653338605216682 4.276164779663085 2.670916730216682 Q 4.292571029663085 2.688494855216682 4.301477279663085 2.7112292302166816 Q 4.310383529663085 2.733963605216682 4.310383529663085 2.7602136052166815 Q 4.310383529663085 2.7855261052166815 4.301477279663085 2.8082604802166817 Q 4.292571029663085 2.8309948552166815 4.276399154663085 2.8485729802166815 Q 4.260227279663084 2.8661511052166815 4.237961654663085 2.8762292302166816 Q 4.215696029663085 2.886307355216682 4.188977279663085 2.886307355216682 M 4.100383529663085 2.7606823552166815 Q 4.100383529663085 2.7878698552166816 4.112336654663085 2.810135480216682 Q 4.124289779663084 2.8324011052166815 4.144446029663085 2.845291730216682 Q 4.164602279663085 2.8581823552166816 4.188977279663085 2.8581823552166816 Q 4.213352279663084 2.8581823552166816 4.2335085296630846 2.8450573552166816 Q 4.253664779663085 2.8319323552166815 4.2658522796630844 2.8091979802166818 Q 4.278039779663085 2.7864636052166816 4.278039779663085 2.7597448552166814 Q 4.278039779663085 2.7325573552166817 4.2658522796630844 2.710057355216682 Q 4.253664779663085 2.687557355216682 4.2335085296630846 2.6744323552166818 Q 4.213352279663084 2.6613073552166817 4.188977279663085 2.6613073552166817 Q 4.164602279663085 2.6613073552166817 4.1446804046630845 2.674901105216682 Q 4.124758529663085 2.688494855216682 4.112571029663084 2.7107604802166816 Q 4.100383529663085 2.7330261052166818 4.100383529663085 2.7606823552166815 M 4.362635421752929 2.780838605216682 L 4.362635421752929 2.6374011052166817 L 4.394510421752928 2.6374011052166817 L 4.394510421752928 2.7752136052166816 Q 4.394510421752928 2.816932355216682 4.408807296752928 2.8375573552166817 Q 4.423104171752929 2.8581823552166816 4.451229171752928 2.8581823552166816 Q 4.469979171752929 2.8581823552166816 4.487557296752929 2.8499792302166815 Q 4.505135421752929 2.8417761052166814 4.518729171752928 2.8265417302166815 Q 4.532322921752928 2.8113073552166816 4.539354171752929 2.7911511052166817 L 4.539354171752929 2.6374011052166817 L 4.571229171752928 2.6374011052166817 L 4.571229171752928 2.8431823552166815 Q 4.571229171752928 2.8497448552166817 4.574041671752928 2.8527917302166816 Q 4.576854171752928 2.8558386052166815 4.5824791717529285 2.8563073552166816 L 4.5824791717529285 2.8816198552166816 Q 4.576854171752928 2.8820886052166816 4.573572921752929 2.8823229802166814 Q 4.570291671752928 2.8825573552166817 4.567479171752928 2.8825573552166817 Q 4.5581041717529285 2.8816198552166816 4.551307296752928 2.875057355216682 Q 4.544510421752928 2.8684948552166816 4.544041671752928 2.8591198552166817 L 4.543104171752928 2.8263073552166817 Q 4.527166671752928 2.8544323552166815 4.499744796752928 2.8703698552166816 Q 4.472322921752928 2.886307355216682 4.440447921752928 2.886307355216682 Q 4.402010421752928 2.886307355216682 4.3823229217529285 2.8595886052166817 Q 4.362635421752929 2.8328698552166816 4.362635421752929 2.780838605216682 M 4.8604447174072245 2.5488073552166814 L 4.888100967407225 2.5488073552166814 L 5.026382217407225 2.8816198552166816 L 4.991694717407225 2.8816198552166816 L 4.948569717407225 2.7775573552166817 L 4.799038467407224 2.7775573552166817 L 4.756382217407225 2.8816198552166816 L 4.721225967407225 2.8816198552166816 L 4.8604447174072245 2.5488073552166814 M 4.941069717407225 2.7517761052166816 L 4.874038467407225 2.5872448552166816 L 4.806069717407225 2.7517761052166816 L 4.941069717407225 2.7517761052166816 M 5.1906909942626935 2.6655261052166814 Q 5.158815994262693 2.6664636052166815 5.134675369262693 2.6833386052166817 Q 5.110534744262694 2.700213605216682 5.100690994262694 2.7297448552166816 L 5.100690994262694 2.8816198552166816 L 5.068815994262693 2.8816198552166816 L 5.068815994262693 2.6374011052166817 L 5.098815994262694 2.6374011052166817 L 5.098815994262694 2.6959948552166817 Q 5.111472244262694 2.6702136052166816 5.132331619262693 2.6542761052166814 Q 5.153190994262693 2.6383386052166817 5.176628494262693 2.6364636052166817 Q 5.181315994262693 2.6359948552166816 5.1848316192626935 2.6359948552166816 Q 5.188347244262693 2.6359948552166816 5.1906909942626935 2.6364636052166817 L 5.1906909942626935 2.6655261052166814 M 5.33249816894531 2.886307355216682 Q 5.30624816894531 2.886307355216682 5.28374816894531 2.8762292302166816 Q 5.26124816894531 2.8661511052166815 5.24484191894531 2.8485729802166815 Q 5.22843566894531 2.8309948552166815 5.21929504394531 2.8080261052166815 Q 5.210154418945311 2.7850573552166815 5.210154418945311 2.758807355216682 Q 5.210154418945311 2.7245886052166814 5.2258575439453105 2.6959948552166817 Q 5.2415606689453105 2.6674011052166815 5.26921691894531 2.6502917302166815 Q 5.296873168945311 2.6331823552166815 5.332029418945311 2.6331823552166815 Q 5.36812316894531 2.6331823552166815 5.39507629394531 2.6505261052166817 Q 5.422029418945311 2.6678698552166815 5.437498168945311 2.6962292302166815 Q 5.45296691894531 2.7245886052166814 5.45296691894531 2.758338605216682 Q 5.45296691894531 2.7620886052166815 5.45296691894531 2.7656042302166814 Q 5.45296691894531 2.769119855216682 5.4524981689453105 2.7709948552166814 L 5.2434356689453105 2.7709948552166814 Q 5.24577941894531 2.7972448552166815 5.25820129394531 2.8176354802166816 Q 5.270623168945311 2.8380261052166817 5.29054504394531 2.8499792302166815 Q 5.31046691894531 2.8619323552166818 5.33390441894531 2.8619323552166818 Q 5.35781066894531 2.8619323552166818 5.379138793945311 2.8497448552166817 Q 5.400466918945311 2.8375573552166817 5.40890441894531 2.8178698552166814 L 5.436560668945311 2.8253698552166817 Q 5.4290606689453105 2.8427136052166815 5.41359191894531 2.8567761052166816 Q 5.39812316894531 2.8708386052166817 5.3772637939453105 2.8785729802166817 Q 5.35640441894531 2.886307355216682 5.33249816894531 2.886307355216682 M 5.2424981689453105 2.7480261052166814 L 5.422966918945311 2.7480261052166814 Q 5.421091918945311 2.7213073552166818 5.40867004394531 2.7011511052166814 Q 5.39624816894531 2.6809948552166816 5.3763262939453105 2.669510480216682 Q 5.35640441894531 2.6580261052166816 5.33249816894531 2.6580261052166816 Q 5.308591918945311 2.6580261052166816 5.28890441894531 2.669510480216682 Q 5.26921691894531 2.6809948552166816 5.25679504394531 2.7013854802166817 Q 5.244373168945311 2.721776105216682 5.2424981689453105 2.7480261052166814 M 5.719204788208005 2.5488073552166814 L 5.746861038208006 2.5488073552166814 L 5.885142288208005 2.8816198552166816 L 5.850454788208006 2.8816198552166816 L 5.807329788208006 2.7775573552166817 L 5.657798538208005 2.7775573552166817 L 5.6151422882080055 2.8816198552166816 L 5.5799860382080055 2.8816198552166816 L 5.719204788208005 2.5488073552166814 M 5.799829788208005 2.7517761052166816 L 5.732798538208005 2.5872448552166816 L 5.664829788208006 2.7517761052166816 L 5.799829788208005 2.7517761052166816 M 6.034921646118161 2.8699011052166816 Q 6.031171646118161 2.8713073552166817 6.023202896118161 2.875057355216682 Q 6.0152341461181615 2.8788073552166815 6.003984146118161 2.8816198552166816 Q 5.992734146118162 2.8844323552166817 5.979609146118161 2.8844323552166817 Q 5.966015396118161 2.8844323552166817 5.954062271118161 2.8792761052166815 Q 5.942109146118161 2.874119855216682 5.935077896118162 2.8635729802166816 Q 5.928046646118162 2.8530261052166814 5.928046646118162 2.8375573552166817 L 5.928046646118162 2.6627136052166818 L 5.894296646118161 2.6627136052166818 L 5.894296646118161 2.6374011052166817 L 5.928046646118162 2.6374011052166817 L 5.928046646118162 2.5549011052166817 L 5.959921646118161 2.5549011052166817 L 5.959921646118161 2.6374011052166817 L 6.016171646118162 2.6374011052166817 L 6.016171646118162 2.6627136052166818 L 5.959921646118161 2.6627136052166818 L 5.959921646118161 2.828651105216682 Q 5.960859146118161 2.8417761052166814 5.969531021118161 2.8483386052166817 Q 5.9782028961181615 2.8549011052166815 5.989452896118161 2.8549011052166815 Q 6.0025778961181615 2.8549011052166815 6.0133591461181615 2.8504479802166816 Q 6.024140396118161 2.8459948552166816 6.026484146118161 2.8441198552166815 L 6.034921646118161 2.8699011052166816 M 6.465715484619137 2.5488073552166814 L 6.465715484619137 2.8816198552166816 L 6.433371734619137 2.8816198552166816 L 6.433371734619137 2.7259948552166815 L 6.236027984619137 2.7259948552166815 L 6.236027984619137 2.8816198552166816 L 6.203215484619138 2.8816198552166816 L 6.203215484619138 2.5488073552166814 L 6.236027984619137 2.5488073552166814 L 6.236027984619137 2.6969323552166817 L 6.433371734619137 2.6969323552166817 L 6.433371734619137 2.5488073552166814 L 6.465715484619137 2.5488073552166814 M 6.6440657043457 2.886307355216682 Q 6.6178157043457 2.886307355216682 6.5955500793457 2.8762292302166816 Q 6.5732844543457 2.8661511052166815 6.5571125793457 2.8485729802166815 Q 6.5409407043457 2.8309948552166815 6.5320344543457 2.8082604802166817 Q 6.5231282043457 2.7855261052166815 6.5231282043457 2.7602136052166815 Q 6.5231282043457 2.733963605216682 6.5320344543457 2.7112292302166816 Q 6.5409407043457 2.688494855216682 6.5573469543457 2.670916730216682 Q 6.5737532043457 2.653338605216682 6.5960188293457 2.6432604802166817 Q 6.6182844543457 2.6331823552166815 6.6445344543457 2.6331823552166815 Q 6.6707844543457 2.6331823552166815 6.6928157043456995 2.6432604802166817 Q 6.7148469543457 2.653338605216682 6.7312532043457 2.670916730216682 Q 6.7476594543457 2.688494855216682 6.7565657043457 2.7112292302166816 Q 6.7654719543457 2.733963605216682 6.7654719543457 2.7602136052166815 Q 6.7654719543457 2.7855261052166815 6.7565657043457 2.8082604802166817 Q 6.7476594543457 2.8309948552166815 6.7314875793457 2.8485729802166815 Q 6.7153157043457 2.8661511052166815 6.6930500793457 2.8762292302166816 Q 6.6707844543457 2.886307355216682 6.6440657043457 2.886307355216682 M 6.5554719543457 2.7606823552166815 Q 6.5554719543457 2.7878698552166816 6.5674250793457 2.810135480216682 Q 6.5793782043457 2.8324011052166815 6.5995344543457 2.845291730216682 Q 6.6196907043457 2.8581823552166816 6.6440657043457 2.8581823552166816 Q 6.6684407043457 2.8581823552166816 6.6885969543457 2.8450573552166816 Q 6.7087532043457 2.8319323552166815 6.7209407043457 2.8091979802166818 Q 6.7331282043457 2.7864636052166816 6.7331282043457 2.7597448552166814 Q 6.7331282043457 2.7325573552166817 6.7209407043457 2.710057355216682 Q 6.7087532043457 2.687557355216682 6.6885969543457 2.6744323552166818 Q 6.6684407043457 2.6613073552166817 6.6440657043457 2.6613073552166817 Q 6.6196907043457 2.6613073552166817 6.5997688293457 2.674901105216682 Q 6.5798469543457 2.688494855216682 6.5676594543457 2.7107604802166816 Q 6.5554719543457 2.7330261052166818 6.5554719543457 2.7606823552166815 M 7.1833488464355435 2.8816198552166816 L 7.151473846435543 2.8816198552166816 L 7.151473846435543 2.745213605216682 Q 7.151473846435543 2.7025573552166815 7.137880096435543 2.6824011052166816 Q 7.124286346435543 2.6622448552166817 7.097567596435543 2.6622448552166817 Q 7.069911346435544 2.6622448552166817 7.048114471435543 2.6819323552166816 Q 7.026317596435543 2.7016198552166815 7.017411346435543 2.7325573552166817 L 7.017411346435543 2.8816198552166816 L 6.985536346435543 2.8816198552166816 L 6.985536346435543 2.745213605216682 Q 6.985536346435543 2.7020886052166815 6.9724113464355435 2.682166730216682 Q 6.959286346435544 2.6622448552166817 6.932098846435544 2.6622448552166817 Q 6.904911346435544 2.6622448552166817 6.882880096435543 2.6814636052166816 Q 6.860848846435544 2.7006823552166814 6.851942596435544 2.7320886052166817 L 6.851942596435544 2.8816198552166816 L 6.8200675964355435 2.8816198552166816 L 6.8200675964355435 2.6374011052166817 L 6.849130096435544 2.6374011052166817 L 6.849130096435544 2.6927136052166816 Q 6.864598846435544 2.664119855216682 6.888739471435543 2.6486511052166817 Q 6.9128800964355435 2.6331823552166815 6.942411346435543 2.6331823552166815 Q 6.972880096435543 2.6331823552166815 6.991630096435544 2.6505261052166817 Q 7.010380096435544 2.6678698552166815 7.014598846435543 2.6959948552166817 Q 7.031473846435543 2.665057355216682 7.055145721435544 2.6491198552166817 Q 7.0788175964355435 2.6331823552166815 7.108817596435544 2.6331823552166815 Q 7.129442596435544 2.6331823552166815 7.143739471435543 2.640682355216682 Q 7.158036346435543 2.6481823552166817 7.1667082214355435 2.6620104802166815 Q 7.175380096435544 2.675838605216682 7.179364471435544 2.6952917302166814 Q 7.1833488464355435 2.7147448552166815 7.1833488464355435 2.7386511052166815 L 7.1833488464355435 2.8816198552166816 M 7.3574924468994105 2.886307355216682 Q 7.33124244689941 2.886307355216682 7.30874244689941 2.8762292302166816 Q 7.2862424468994105 2.8661511052166815 7.26983619689941 2.8485729802166815 Q 7.25342994689941 2.8309948552166815 7.24428932189941 2.8080261052166815 Q 7.235148696899411 2.7850573552166815 7.235148696899411 2.758807355216682 Q 7.235148696899411 2.7245886052166814 7.250851821899411 2.6959948552166817 Q 7.266554946899411 2.6674011052166815 7.29421119689941 2.6502917302166815 Q 7.321867446899411 2.6331823552166815 7.357023696899411 2.6331823552166815 Q 7.39311744689941 2.6331823552166815 7.42007057189941 2.6505261052166817 Q 7.447023696899411 2.6678698552166815 7.462492446899411 2.6962292302166815 Q 7.47796119689941 2.7245886052166814 7.47796119689941 2.758338605216682 Q 7.47796119689941 2.7620886052166815 7.47796119689941 2.7656042302166814 Q 7.47796119689941 2.769119855216682 7.477492446899411 2.7709948552166814 L 7.268429946899411 2.7709948552166814 Q 7.27077369689941 2.7972448552166815 7.283195571899411 2.8176354802166816 Q 7.295617446899411 2.8380261052166817 7.3155393218994105 2.8499792302166815 Q 7.33546119689941 2.8619323552166818 7.35889869689941 2.8619323552166818 Q 7.382804946899411 2.8619323552166818 7.404133071899411 2.8497448552166817 Q 7.425461196899411 2.8375573552166817 7.43389869689941 2.8178698552166814 L 7.461554946899411 2.8253698552166817 Q 7.454054946899411 2.8427136052166815 7.4385861968994105 2.8567761052166816 Q 7.42311744689941 2.8708386052166817 7.402258071899411 2.8785729802166817 Q 7.38139869689941 2.886307355216682 7.3574924468994105 2.886307355216682 M 7.267492446899411 2.7480261052166814 L 7.447961196899411 2.7480261052166814 Q 7.446086196899411 2.7213073552166818 7.4336643218994105 2.7011511052166814 Q 7.42124244689941 2.6809948552166816 7.401320571899411 2.669510480216682 Q 7.38139869689941 2.6580261052166816 7.3574924468994105 2.6580261052166816 Q 7.333586196899411 2.6580261052166816 7.31389869689941 2.669510480216682 Q 7.29421119689941 2.6809948552166816 7.28178932189941 2.7013854802166817 Q 7.269367446899411 2.721776105216682 7.267492446899411 2.7480261052166814 M 7.744199066162105 2.5488073552166814 L 7.771855316162106 2.5488073552166814 L 7.910136566162105 2.8816198552166816 L 7.875449066162106 2.8816198552166816 L 7.832324066162106 2.7775573552166817 L 7.682792816162105 2.7775573552166817 L 7.640136566162106 2.8816198552166816 L 7.604980316162106 2.8816198552166816 L 7.744199066162105 2.5488073552166814 M 7.824824066162106 2.7517761052166816 L 7.757792816162105 2.5872448552166816 L 7.689824066162106 2.7517761052166816 L 7.824824066162106 2.7517761052166816 M 8.157882843017575 2.8816198552166816 L 8.126007843017574 2.8816198552166816 L 8.126007843017574 2.745213605216682 Q 8.126007843017574 2.7020886052166815 8.113351593017574 2.682166730216682 Q 8.100695343017573 2.6622448552166817 8.073507843017573 2.6622448552166817 Q 8.054757843017574 2.6622448552166817 8.036476593017573 2.6713854802166814 Q 8.018195343017574 2.6805261052166816 8.004367218017574 2.6962292302166815 Q 7.990539093017574 2.711932355216682 7.984445343017574 2.7320886052166817 L 7.984445343017574 2.8816198552166816 L 7.952570343017574 2.8816198552166816 L 7.952570343017574 2.6374011052166817 L 7.981632843017574 2.6374011052166817 L 7.981632843017574 2.6927136052166816 Q 7.991476593017574 2.674901105216682 8.007414093017575 2.6615417302166815 Q 8.023351593017575 2.6481823552166817 8.043507843017574 2.640682355216682 Q 8.063664093017573 2.6331823552166815 8.085226593017573 2.6331823552166815 Q 8.105382843017575 2.6331823552166815 8.119445343017574 2.640682355216682 Q 8.133507843017574 2.6481823552166817 8.141945343017573 2.6620104802166815 Q 8.150382843017574 2.675838605216682 8.154132843017575 2.6952917302166814 Q 8.157882843017575 2.7147448552166815 8.157882843017575 2.7386511052166815 L 8.157882843017575 2.8816198552166816 M 8.235939788818355 2.956619855216682 Q 8.242502288818356 2.957088605216682 8.248596038818356 2.9573229802166816 Q 8.254689788818355 2.9575573552166814 8.257502288818355 2.956619855216682 Q 8.263127288818355 2.9556823552166818 8.268283538818356 2.9500573552166816 Q 8.273439788818354 2.944432355216682 8.280471038818355 2.9284948552166816 Q 8.287502288818356 2.9125573552166815 8.300158538818355 2.8816198552166816 L 8.193752288818356 2.6374011052166817 L 8.227502288818355 2.6374011052166817 L 8.317033538818356 2.8488073552166817 L 8.399533538818355 2.6374011052166817 L 8.431408538818355 2.6374011052166817 L 8.304846038818354 2.9524011052166816 Q 8.301564788818355 2.9613073552166815 8.295002288818354 2.9690417302166816 Q 8.288439788818355 2.9767761052166817 8.278830413818355 2.9812292302166816 Q 8.269221038818355 2.9856823552166816 8.255158538818355 2.9861511052166816 Q 8.250939788818355 2.9866198552166816 8.246486663818356 2.986385480216682 Q 8.242033538818355 2.9861511052166816 8.235939788818355 2.9852136052166816 L 8.235939788818355 2.956619855216682 M 8.78460800170898 2.6374011052166817 L 8.816014251708982 2.6374011052166817 L 8.711014251708981 2.8816198552166816 L 8.683358001708982 2.8816198552166816 L 8.63226425170898 2.7602136052166815 L 8.581639251708982 2.8816198552166816 L 8.55398300170898 2.8816198552166816 L 8.448983001708982 2.6374011052166817 L 8.47992050170898 2.6374011052166817 L 8.56898300170898 2.8488073552166817 L 8.61398300170898 2.7386511052166815 L 8.572733001708981 2.6378698552166817 L 8.601326751708982 2.6378698552166817 L 8.63226425170898 2.7170886052166816 L 8.663670501708982 2.6378698552166817 L 8.691795501708981 2.6378698552166817 L 8.65101425170898 2.7386511052166815 L 8.69601425170898 2.8488073552166817 L 8.78460800170898 2.6374011052166817 M 9.064680633544919 2.8816198552166816 L 9.03280563354492 2.8816198552166816 L 9.03280563354492 2.745213605216682 Q 9.03280563354492 2.7039636052166816 9.018274383544918 2.6831042302166814 Q 9.00374313354492 2.6622448552166817 8.976555633544919 2.6622448552166817 Q 8.95874313354492 2.6622448552166817 8.94116500854492 2.6713854802166814 Q 8.92358688354492 2.6805261052166816 8.910227508544919 2.6962292302166815 Q 8.896868133544919 2.711932355216682 8.891243133544918 2.7320886052166817 L 8.891243133544918 2.8816198552166816 L 8.859368133544919 2.8816198552166816 L 8.859368133544919 2.5394323552166815 L 8.891243133544918 2.5394323552166815 L 8.891243133544918 2.6927136052166816 Q 8.90577438354492 2.6655261052166814 8.931790008544919 2.6493542302166815 Q 8.957805633544918 2.6331823552166815 8.98733688354492 2.6331823552166815 Q 9.008430633544918 2.6331823552166815 9.02319625854492 2.640682355216682 Q 9.037961883544918 2.6481823552166817 9.047102508544919 2.6624792302166815 Q 9.05624313354492 2.676776105216682 9.060461883544919 2.6957604802166815 Q 9.064680633544919 2.7147448552166815 9.064680633544919 2.7386511052166815 L 9.064680633544919 2.8816198552166816 M 9.239293670654295 2.886307355216682 Q 9.213043670654296 2.886307355216682 9.190543670654295 2.8762292302166816 Q 9.168043670654296 2.8661511052166815 9.151637420654295 2.8485729802166815 Q 9.135231170654295 2.8309948552166815 9.126090545654295 2.8080261052166815 Q 9.116949920654294 2.7850573552166815 9.116949920654294 2.758807355216682 Q 9.116949920654294 2.7245886052166814 9.132653045654294 2.6959948552166817 Q 9.148356170654294 2.6674011052166815 9.176012420654295 2.6502917302166815 Q 9.203668670654295 2.6331823552166815 9.238824920654295 2.6331823552166815 Q 9.274918670654294 2.6331823552166815 9.301871795654295 2.6505261052166817 Q 9.328824920654295 2.6678698552166815 9.344293670654295 2.6962292302166815 Q 9.359762420654295 2.7245886052166814 9.359762420654295 2.758338605216682 Q 9.359762420654295 2.7620886052166815 9.359762420654295 2.7656042302166814 Q 9.359762420654295 2.769119855216682 9.359293670654294 2.7709948552166814 L 9.150231170654294 2.7709948552166814 Q 9.152574920654295 2.7972448552166815 9.164996795654295 2.8176354802166816 Q 9.177418670654294 2.8380261052166817 9.197340545654296 2.8499792302166815 Q 9.217262420654295 2.8619323552166818 9.240699920654295 2.8619323552166818 Q 9.264606170654295 2.8619323552166818 9.285934295654295 2.8497448552166817 Q 9.307262420654295 2.8375573552166817 9.315699920654295 2.8178698552166814 L 9.343356170654294 2.8253698552166817 Q 9.335856170654294 2.8427136052166815 9.320387420654296 2.8567761052166816 Q 9.304918670654295 2.8708386052166817 9.284059295654295 2.8785729802166817 Q 9.263199920654294 2.886307355216682 9.239293670654295 2.886307355216682 M 9.149293670654295 2.7480261052166814 L 9.329762420654294 2.7480261052166814 Q 9.327887420654294 2.7213073552166818 9.315465545654295 2.7011511052166814 Q 9.303043670654295 2.6809948552166816 9.283121795654294 2.669510480216682 Q 9.263199920654294 2.6580261052166816 9.239293670654295 2.6580261052166816 Q 9.215387420654295 2.6580261052166816 9.195699920654295 2.669510480216682 Q 9.176012420654295 2.6809948552166816 9.163590545654294 2.7013854802166817 Q 9.151168670654295 2.721776105216682 9.149293670654295 2.7480261052166814 M 9.532016372680662 2.6655261052166814 Q 9.500141372680662 2.6664636052166815 9.476000747680663 2.6833386052166817 Q 9.451860122680662 2.700213605216682 9.442016372680662 2.7297448552166816 L 9.442016372680662 2.8816198552166816 L 9.410141372680663 2.8816198552166816 L 9.410141372680663 2.6374011052166817 L 9.440141372680662 2.6374011052166817 L 9.440141372680662 2.6959948552166817 Q 9.452797622680663 2.6702136052166816 9.473656997680663 2.6542761052166814 Q 9.494516372680662 2.6383386052166817 9.517953872680662 2.6364636052166817 Q 9.522641372680663 2.6359948552166816 9.526156997680662 2.6359948552166816 Q 9.529672622680662 2.6359948552166816 9.532016372680662 2.6364636052166817 L 9.532016372680662 2.6655261052166814 M 9.67382354736328 2.886307355216682 Q 9.647573547363281 2.886307355216682 9.62507354736328 2.8762292302166816 Q 9.602573547363281 2.8661511052166815 9.58616729736328 2.8485729802166815 Q 9.569761047363281 2.8309948552166815 9.56062042236328 2.8080261052166815 Q 9.55147979736328 2.7850573552166815 9.55147979736328 2.758807355216682 Q 9.55147979736328 2.7245886052166814 9.56718292236328 2.6959948552166817 Q 9.58288604736328 2.6674011052166815 9.610542297363281 2.6502917302166815 Q 9.638198547363281 2.6331823552166815 9.673354797363281 2.6331823552166815 Q 9.70944854736328 2.6331823552166815 9.73640167236328 2.6505261052166817 Q 9.76335479736328 2.6678698552166815 9.778823547363281 2.6962292302166815 Q 9.794292297363281 2.7245886052166814 9.794292297363281 2.758338605216682 Q 9.794292297363281 2.7620886052166815 9.794292297363281 2.7656042302166814 Q 9.794292297363281 2.769119855216682 9.79382354736328 2.7709948552166814 L 9.58476104736328 2.7709948552166814 Q 9.587104797363281 2.7972448552166815 9.59952667236328 2.8176354802166816 Q 9.61194854736328 2.8380261052166817 9.631870422363281 2.8499792302166815 Q 9.651792297363281 2.8619323552166818 9.675229797363281 2.8619323552166818 Q 9.69913604736328 2.8619323552166818 9.72046417236328 2.8497448552166817 Q 9.741792297363281 2.8375573552166817 9.75022979736328 2.8178698552166814 L 9.77788604736328 2.8253698552166817 Q 9.77038604736328 2.8427136052166815 9.754917297363281 2.8567761052166816 Q 9.739448547363281 2.8708386052166817 9.71858917236328 2.8785729802166817 Q 9.69772979736328 2.886307355216682 9.67382354736328 2.886307355216682 M 9.58382354736328 2.7480261052166814 L 9.76429229736328 2.7480261052166814 Q 9.76241729736328 2.7213073552166818 9.74999542236328 2.7011511052166814 Q 9.737573547363281 2.6809948552166816 9.71765167236328 2.669510480216682 Q 9.69772979736328 2.6580261052166816 9.67382354736328 2.6580261052166816 Q 9.649917297363281 2.6580261052166816 9.630229797363281 2.669510480216682 Q 9.610542297363281 2.6809948552166816 9.59812042236328 2.7013854802166817 Q 9.58569854736328 2.721776105216682 9.58382354736328 2.7480261052166814 M 9.83998374938965 2.8816198552166816 L 9.83998374938965 2.8356823552166817 L 9.867639999389649 2.8356823552166817 L 9.867639999389649 2.8816198552166816 L 9.83998374938965 2.8816198552166816" fill="#efca74" fill-rule="nonzero"></path></g><g clip-path="url(#SvgjsClipPath1002)"><g clip-path="url(#SvgjsClipPath1000b4bf9e64-321e-41f5-b542-0698375d30c3)"><path d=" M -1.1434162695146632 -0.9609786660644097 L -5.375142706015384 -0.9609786660644097 L -5.375142706015384 3.2707477704363113 L -1.1434162695146632 3.2707477704363113 Z M -5.546708224685268 -1.1325441847342932 L -5.546708224685268 3.4423132891061945 L -0.9718507508447805 3.4423132891061945 L -0.9718507508447805 -1.1325441847342932 Z" fill="#d56a34" transform="matrix(1,0,0,1,0,0)" fill-rule="evenodd"></path></g><g clip-path="url(#SvgjsClipPath1000b4bf9e64-321e-41f5-b542-0698375d30c3)"><path d=" M -0.5715655186698831 -0.38912791521962964 L -4.803291955170605 -0.38912791521962964 L -4.803291955170605 3.842598521281092 L -0.5715655186698831 3.842598521281092 Z M -4.974857473840488 -0.560693433889513 L -4.974857473840488 4.014164039950975 L -0.3999999999999999 4.014164039950975 L -0.3999999999999999 -0.560693433889513 Z" fill="#d56a34" transform="matrix(1,0,0,1,0,0)" fill-rule="evenodd"></path></g><path d=" M -3.6526668241374574 0.1541328714370238 L -2.8223312305549006 0.1541328714370238 L -2.8223312305549006 0.4286239767535714 L -3.0968223358714484 0.4286239767535714 L -3.0968223358714484 2.45299587846311 L -2.348834073883856 2.45299587846311 L -2.348834073883856 2.054983775754116 L -2.0880675238331357 2.054983775754116 L -2.0880675238331357 2.7274869837796576 L -3.6526668241374574 2.7274869837796576 L -3.6526668241374574 2.45299587846311 L -3.4124871069854783 2.45299587846311 L -3.4124871069854783 0.4286239767535714 L -3.6526668241374574 0.4286239767535714 L -3.6526668241374574 0.1541328714370238" fill="#ffffff" transform="matrix(1,0,0,1,0,0)" fill-rule="nonzero"></path></g></g><defs><clipPath id="SvgjsClipPath1002"><path d=" M -5.546708224685268 -1.1325441847342932 h 5.146708224685268 v 5.146708224685268 h -5.146708224685268 Z"></path></clipPath><clipPath id="SvgjsClipPath1000b4bf9e64-321e-41f5-b542-0698375d30c3"><path d=" M -5.546708224685268 -1.1325441847342932 L -0.3999999999999999 -1.1325441847342932 L -0.3999999999999999 4.014164039950975 L -5.546708224685268 4.014164039950975 Z"></path></clipPath></defs></svg>